<svg xmlns="http://www.w3.org/2000/svg" viewBox="0 0 1000 1000" data-light-direction="top-left" data-shell-id="audition-aquarium" data-authoring-mode="direct-surface"><defs><clipPath id="audition-aquarium-primary-artwork-clip"><path data-artwork-surface="primary" data-surface-width="700" data-surface-height="370" d="M150 250H850V620H150Z"/></clipPath></defs><ellipse data-grounding-shadow="true" cx="500.0" cy="854" rx="344.4" ry="18.76" fill="#34414D" opacity="0.14"/><g data-product-shell="true" stroke="#34414D" stroke-width="6" stroke-linecap="round" stroke-linejoin="round"><g data-region="body" fill="#F4F1EA"><path d="M100 190H900V810H100ZM150 250V620H850V250Z" fill-rule="evenodd"/></g><g data-region="glass" fill="#DCE4E8"><path data-product-part="full-front-glass" d="M150 250H850V620H150Z" fill-opacity="0.26"/></g><g data-region="trim" fill="#A8B8C4"><path d="M90 180Q90 160 115 160H885Q910 160 910 180V245H90Z"/><path d="M90 760H910V830H90Z"/></g><g data-region="accent" fill="#E9C8B8"><path data-product-part="gravel-band" d="M150 620H850V690Q760 675 675 690Q500 710 325 690Q240 675 150 690Z" fill-opacity="0.38"/></g></g><path data-tone="shadow" fill="#34414D" opacity="0.10" stroke="none" d="M800 250H850V620H800ZM820 620H900V810H820Z"/><path data-tone="highlight" fill="#FFFFFF" opacity="0.34" stroke="none" d="M175 275H220V535H175ZM220 275H500V305H220Z"/><g data-detail-layer="true" fill="none" stroke="#6A7580" stroke-width="3" stroke-linecap="round" stroke-linejoin="round"><circle cx="195" cy="330" r="12"/><circle cx="235" cy="290" r="8"/><path d="M150 250H850V620H150Z"/><path d="M190 655H810"/><path d="M170 785H830"/></g><g data-artwork-slot="primary" clip-path="url(#audition-aquarium-primary-artwork-clip)"></g></svg>