<?xml version="1.0" encoding="UTF-8"?>
<svg xmlns="http://www.w3.org/2000/svg" viewBox="0 0 1000 1000" data-shell-id="drinks-contour-bottle" data-template="bottle"><defs><clipPath id="drinks-contour-bottle--clip-front-label"><rect x="340" y="320" width="320" height="360"/></clipPath><linearGradient id="drinks-contour-bottle--preview-gradient" x1="0" y1="0" x2="1" y2="0"><stop offset="0" stop-color="#000000" stop-opacity="0.18"/><stop offset="0.42" stop-color="#FFFFFF" stop-opacity="0.22"/><stop offset="1" stop-color="#000000" stop-opacity="0.2"/></linearGradient></defs><ellipse id="drinks-contour-bottle--preview-shadow" cx="500" cy="948" rx="211.2" ry="22" fill="#000000" opacity="0.18"/><g id="drinks-contour-bottle--preview-depth" fill="#20262D" color="#20262D" opacity="0.13" transform="translate(22 16)"><path d="M 423.2 147.2 H 576.8 V 248 C 576.8 298.4, 663.2 315.2, 663.2 416 V 869.6 H 336.8 V 416 C 336.8 315.2, 423.2 298.4, 423.2 248 Z"/></g><g id="drinks-contour-bottle--regions"><g id="drinks-contour-bottle--region-body" data-region="body" fill="#DCE8E8" color="#DCE8E8"><path d="M 423.2 147.2 H 576.8 V 248 C 576.8 298.4, 663.2 315.2, 663.2 416 V 869.6 H 336.8 V 416 C 336.8 315.2, 423.2 298.4, 423.2 248 Z"/></g><g id="drinks-contour-bottle--region-trim" data-region="trim" fill="#323A44" color="#323A44"><rect x="408.8" y="80" width="182.4" height="92.4" rx="13.44"/></g><g id="drinks-contour-bottle--region-accent" data-region="accent" fill="#4AA6A0" color="#4AA6A0"><rect x="389.6" y="239.6" width="220.8" height="50.4"/></g><g id="drinks-contour-bottle--region-label" data-region="label" fill="#FFF6DD" color="#FFF6DD"><rect x="356" y="281.6" width="288" height="403.2" rx="19.2"/></g></g><g id="drinks-contour-bottle--print-guides"></g><g id="drinks-contour-bottle--preview-overlay" fill="url(#drinks-contour-bottle--preview-gradient)" opacity="0.17"><path d="M 423.2 147.2 H 576.8 V 248 C 576.8 298.4, 663.2 315.2, 663.2 416 V 869.6 H 336.8 V 416 C 336.8 315.2, 423.2 298.4, 423.2 248 Z"/></g></svg>
