<svg xmlns="http://www.w3.org/2000/svg" viewBox="0 0 1000 1000" data-shell-id="audition-garden-tool" data-authoring-mode="direct-surface"><defs><clipPath id="audition-garden-tool-primary-artwork-clip"><path data-artwork-surface="primary" data-surface-width="210" data-surface-height="620" d="M395 215Q395 195 415 195H585Q605 195 605 215V815H395Z"/></clipPath></defs><g data-product-shell="true" stroke="#34414D" stroke-width="6" stroke-linecap="round" stroke-linejoin="round"><g data-region="body" fill="#F4F1EA"><path d="M395 180Q395 145 435 140H565Q605 145 605 180V825H395Z"/></g><g data-region="handle" fill="#A8B8C4"><path d="M405 95Q405 70 435 70H565Q595 70 595 95V215Q595 235 570 235H430Q405 235 405 215Z"/></g><g data-region="accent" fill="#E9C8B8"><path data-product-part="angled-hoe-head" d="M420 755L575 730L610 775L705 830L665 895L545 850L465 815L400 835Z"/></g></g><path data-tone="shadow" fill="#34414D" opacity="0.10" stroke="none" d="M520 140H565Q605 145 605 180V800L705 830L665 895L545 850L520 840Z"/><path data-tone="highlight" fill="#FFFFFF" opacity="0.34" stroke="none" d="M430 250H465V730H430Z"/><g data-detail-layer="true" fill="none" stroke="#6A7580" stroke-width="3" stroke-linecap="round" stroke-linejoin="round"><path d="M440 100H560M440 135H560M440 170H560M440 205H560"/><path d="M440 265V745M560 265V745"/><path d="M575 775L685 838M555 815L665 875"/></g><g data-artwork-slot="primary" clip-path="url(#audition-garden-tool-primary-artwork-clip)"></g><g data-guide-overlay="true" visibility="hidden"><path data-print-area="primary" d="M395 215Q395 195 415 195H585Q605 195 605 215V815H395Z" fill="#6C5CE7" fill-opacity="0.10" stroke="none"/><g data-corner-guides="true" fill="none" stroke="#6C5CE7" stroke-width="3" stroke-linecap="round" stroke-linejoin="round"><path d="M412.85 195H395V212.85"/><path d="M587.15 195H605V212.85"/><path d="M395 797.15V815H412.85"/><path d="M605 797.15V815H587.15"/></g></g></svg>