<svg xmlns="http://www.w3.org/2000/svg" viewBox="0 0 1000 1000" data-light-direction="top-left" data-shell-id="audition-trainer" data-authoring-mode="direct-surface"><defs><clipPath id="audition-trainer-primary-artwork-clip"><path data-artwork-surface="primary" data-surface-width="805" data-surface-height="355" d="M115 560Q185 525 250 455L330 335Q365 295 420 295L555 300Q600 350 640 425L705 470Q795 495 870 535Q900 550 900 590L865 650H155Q105 640 95 600Q92 575 115 560Z"/></clipPath></defs><ellipse data-grounding-shadow="true" cx="500.0" cy="784" rx="344.4" ry="13.44" fill="#34414D" opacity="0.14"/><g data-product-shell="true" stroke="#34414D" stroke-width="6" stroke-linecap="round" stroke-linejoin="round"><g data-region="upper" fill="#F4F1EA"><path data-product-part="athletic-upper" d="M115 560Q185 525 250 455L330 335Q365 295 420 295L555 300Q600 350 640 425L705 470Q795 495 870 535Q900 550 900 590L865 650H155Q105 640 95 600Q92 575 115 560Z"/></g><g data-region="sole" fill="#DCE4E8"><path d="M100 610Q135 640 180 645H870Q900 640 905 675Q900 720 850 735H175Q105 725 90 675Q88 635 100 610Z"/></g><g data-region="trim" fill="#A8B8C4"><path d="M115 560Q185 525 250 455L300 510L250 635H145Z"/><path d="M705 470Q795 495 870 535L865 650H735L760 555Z"/></g><g data-region="accent" fill="#E9C8B8"><path data-product-part="trainer-tongue" d="M395 305L555 310L575 520L350 485Z"/><path data-product-part="trainer-eye-stay" d="M325 350L365 335L515 505L470 535Z"/></g></g><path data-tone="shadow" fill="#34414D" opacity="0.10" stroke="none" d="M705 470Q795 495 870 535Q900 550 900 590L865 650H735L760 555Z"/><path data-tone="highlight" fill="#FFFFFF" opacity="0.34" stroke="none" d="M145 540Q205 505 250 455L330 335Q355 305 405 298L385 350Q345 380 300 470L235 555Z"/><g data-detail-layer="true" fill="none" stroke="#6A7580" stroke-width="3" stroke-linecap="round" stroke-linejoin="round"><path data-product-part="trainer-lace" d="M350 380L510 410L502 428L342 398Z" fill="#6A7580" stroke="none"/><path data-product-part="trainer-lace" d="M335 410L525 445L517 463L327 428Z" fill="#6A7580" stroke="none"/><path data-product-part="trainer-lace" d="M320 440L540 480L532 498L312 458Z" fill="#6A7580" stroke="none"/><path data-product-part="trainer-lace" d="M305 470L552 512L544 530L297 488Z" fill="#6A7580" stroke="none"/><path data-product-part="trainer-lace" d="M290 500L565 542L557 560L282 518Z" fill="#6A7580" stroke="none"/><path data-product-part="trainer-lace" d="M275 530L565 568L557 586L267 548Z" fill="#6A7580" stroke="none"/><path d="M165 675H835"/><path d="M250 455Q290 520 250 635"/><path d="M735 500Q770 555 750 625"/></g><g data-artwork-slot="primary" clip-path="url(#audition-trainer-primary-artwork-clip)"></g></svg>